<?xml version="1.0" encoding="UTF-8" standalone="no"?>
<!DOCTYPE svg PUBLIC "-//W3C//DTD SVG 1.1//EN"
 "http://www.w3.org/Graphics/SVG/1.1/DTD/svg11.dtd">
<!-- Generated by graphviz version 2.47.1 (20210417.1919)
 -->
<!-- Title: G Pages: 1 -->
<svg width="1209pt" height="1362pt"
 viewBox="0.00 0.00 1209.00 1362.00" xmlns="http://www.w3.org/2000/svg" xmlns:xlink="http://www.w3.org/1999/xlink">
<g id="graph0" class="graph" transform="scale(1 1) rotate(0) translate(36 1326)">
<title>G</title>
<polygon fill="#f7f7f7" stroke="transparent" points="-36,36 -36,-1326 1173,-1326 1173,36 -36,36"/>
<!-- appmodelsdraft -->
<g id="node1" class="node">
<title>appmodelsdraft</title>
<polygon fill="none" stroke="black" points="477,-259 313,-259 313,0 477,0 477,-259"/>
<polygon fill="#d3d3d3" stroke="transparent" points="313,-221.5 313,-258.5 477,-258.5 477,-221.5 313,-221.5"/>
<polygon fill="none" stroke="black" points="313,-221.5 313,-258.5 477,-258.5 477,-221.5 313,-221.5"/>
<text text-anchor="start" x="379" y="-236.3" font-family="Helvetica Neue" font-size="14.00" fill="#333333">Draft</text>
<polygon fill="#ffffff" stroke="transparent" points="313,-184.5 313,-221.5 477,-221.5 477,-184.5 313,-184.5"/>
<polygon fill="none" stroke="black" points="313,-184.5 313,-221.5 477,-221.5 477,-184.5 313,-184.5"/>
<text text-anchor="start" x="324" y="-199.3" font-family="Helvetica Neue" font-size="14.00" fill="#333333">id (bigint)</text>
<polygon fill="#ffffff" stroke="transparent" points="313,-147.5 313,-184.5 477,-184.5 477,-147.5 313,-147.5"/>
<polygon fill="none" stroke="black" points="313,-147.5 313,-184.5 477,-184.5 477,-147.5 313,-147.5"/>
<text text-anchor="start" x="324" y="-162.3" font-family="Helvetica Neue" font-size="14.00" fill="#333333">mail_id (bigint)</text>
<polygon fill="#ffffff" stroke="transparent" points="313,-110.5 313,-147.5 477,-147.5 477,-110.5 313,-110.5"/>
<polygon fill="none" stroke="black" points="313,-110.5 313,-147.5 477,-147.5 477,-110.5 313,-110.5"/>
<text text-anchor="start" x="324" y="-125.3" font-family="Helvetica Neue" font-size="14.00" fill="#333333">user_id (bigint)</text>
<polygon fill="#ffffff" stroke="transparent" points="313,-73.5 313,-110.5 477,-110.5 477,-73.5 313,-73.5"/>
<polygon fill="none" stroke="black" points="313,-73.5 313,-110.5 477,-110.5 477,-73.5 313,-73.5"/>
<text text-anchor="start" x="324" y="-88.3" font-family="Helvetica Neue" font-size="14.00" fill="#333333">isImp (string)</text>
<polygon fill="#ffffff" stroke="transparent" points="313,-36.5 313,-73.5 477,-73.5 477,-36.5 313,-36.5"/>
<polygon fill="none" stroke="black" points="313,-36.5 313,-73.5 477,-73.5 477,-36.5 313,-36.5"/>
<text text-anchor="start" x="324" y="-51.3" font-family="Helvetica Neue" font-size="14.00" fill="#333333">created_at (datetime)</text>
<polygon fill="#ffffff" stroke="transparent" points="313,0.5 313,-36.5 477,-36.5 477,0.5 313,0.5"/>
<polygon fill="none" stroke="black" points="313,0.5 313,-36.5 477,-36.5 477,0.5 313,0.5"/>
<text text-anchor="start" x="324" y="-14.3" font-family="Helvetica Neue" font-size="14.00" fill="#333333">updated_at (datetime)</text>
</g>
<!-- appmodelsmail -->
<g id="node2" class="node">
<title>appmodelsmail</title>
<polygon fill="none" stroke="black" points="807,-936 643,-936 643,-603 807,-603 807,-936"/>
<polygon fill="#d3d3d3" stroke="transparent" points="643,-898.5 643,-935.5 807,-935.5 807,-898.5 643,-898.5"/>
<polygon fill="none" stroke="black" points="643,-898.5 643,-935.5 807,-935.5 807,-898.5 643,-898.5"/>
<text text-anchor="start" x="712.5" y="-913.3" font-family="Helvetica Neue" font-size="14.00" fill="#333333">Mail</text>
<polygon fill="#ffffff" stroke="transparent" points="643,-861.5 643,-898.5 807,-898.5 807,-861.5 643,-861.5"/>
<polygon fill="none" stroke="black" points="643,-861.5 643,-898.5 807,-898.5 807,-861.5 643,-861.5"/>
<text text-anchor="start" x="654" y="-876.3" font-family="Helvetica Neue" font-size="14.00" fill="#333333">id (bigint)</text>
<polygon fill="#ffffff" stroke="transparent" points="643,-824.5 643,-861.5 807,-861.5 807,-824.5 643,-824.5"/>
<polygon fill="none" stroke="black" points="643,-824.5 643,-861.5 807,-861.5 807,-824.5 643,-824.5"/>
<text text-anchor="start" x="654" y="-839.3" font-family="Helvetica Neue" font-size="14.00" fill="#333333">subject (text)</text>
<polygon fill="#ffffff" stroke="transparent" points="643,-787.5 643,-824.5 807,-824.5 807,-787.5 643,-787.5"/>
<polygon fill="none" stroke="black" points="643,-787.5 643,-824.5 807,-824.5 807,-787.5 643,-787.5"/>
<text text-anchor="start" x="654" y="-802.3" font-family="Helvetica Neue" font-size="14.00" fill="#333333">message (text)</text>
<polygon fill="#ffffff" stroke="transparent" points="643,-750.5 643,-787.5 807,-787.5 807,-750.5 643,-750.5"/>
<polygon fill="none" stroke="black" points="643,-750.5 643,-787.5 807,-787.5 807,-750.5 643,-750.5"/>
<text text-anchor="start" x="654" y="-765.3" font-family="Helvetica Neue" font-size="14.00" fill="#333333">sender_id (string)</text>
<polygon fill="#ffffff" stroke="transparent" points="643,-713.5 643,-750.5 807,-750.5 807,-713.5 643,-713.5"/>
<polygon fill="none" stroke="black" points="643,-713.5 643,-750.5 807,-750.5 807,-713.5 643,-713.5"/>
<text text-anchor="start" x="654" y="-728.3" font-family="Helvetica Neue" font-size="14.00" fill="#333333">receiver_id (string)</text>
<polygon fill="#ffffff" stroke="transparent" points="643,-676.5 643,-713.5 807,-713.5 807,-676.5 643,-676.5"/>
<polygon fill="none" stroke="black" points="643,-676.5 643,-713.5 807,-713.5 807,-676.5 643,-676.5"/>
<text text-anchor="start" x="654" y="-691.3" font-family="Helvetica Neue" font-size="14.00" fill="#333333">isDraft (string)</text>
<polygon fill="#ffffff" stroke="transparent" points="643,-639.5 643,-676.5 807,-676.5 807,-639.5 643,-639.5"/>
<polygon fill="none" stroke="black" points="643,-639.5 643,-676.5 807,-676.5 807,-639.5 643,-639.5"/>
<text text-anchor="start" x="654" y="-654.3" font-family="Helvetica Neue" font-size="14.00" fill="#333333">created_at (datetime)</text>
<polygon fill="#ffffff" stroke="transparent" points="643,-602.5 643,-639.5 807,-639.5 807,-602.5 643,-602.5"/>
<polygon fill="none" stroke="black" points="643,-602.5 643,-639.5 807,-639.5 807,-602.5 643,-602.5"/>
<text text-anchor="start" x="654" y="-617.3" font-family="Helvetica Neue" font-size="14.00" fill="#333333">updated_at (datetime)</text>
</g>
<!-- appmodelsdraft&#45;&gt;appmodelsmail -->
<g id="edge1" class="edge">
<title>appmodelsdraft:mail_id&#45;&gt;appmodelsmail:id</title>
<path fill="none" stroke="#f77f00" stroke-width="1.8" d="M479.65,-176.41C493.19,-227.06 554,-454.5 554,-454.5 554,-454.5 631.02,-827.36 640.95,-875.42"/>
<polygon fill="#f77f00" stroke="#f77f00" stroke-width="1.8" points="479.58,-176.16 481.35,-165.34 478.29,-171.33 477,-166.5 477,-166.5 477,-166.5 478.29,-171.33 472.65,-167.66 479.58,-176.16 479.58,-176.16"/>
<polygon fill="#f77f00" stroke="#f77f00" stroke-width="1.8" points="646.69,-878.51 636.9,-880.53 636.5,-878.57 646.29,-876.55 646.69,-878.51"/>
<polyline fill="none" stroke="#f77f00" stroke-width="1.8" points="642,-880.5 640.99,-875.6 "/>
<text text-anchor="middle" x="551.5" y="-458.3" font-family="Helvetica Neue" font-size="14.00"> </text>
<text text-anchor="middle" x="535.86" y="-542.81" font-family="Helvetica Neue" font-size="14.00">BelongsTo</text>
<text text-anchor="middle" x="535.86" y="-527.81" font-family="Helvetica Neue" font-size="14.00">mail</text>
</g>
<!-- appmodelsuser -->
<g id="node3" class="node">
<title>appmodelsuser</title>
<polygon fill="none" stroke="black" points="824,-530.5 626,-530.5 626,-86.5 824,-86.5 824,-530.5"/>
<polygon fill="#d3d3d3" stroke="transparent" points="626,-493.5 626,-530.5 824,-530.5 824,-493.5 626,-493.5"/>
<polygon fill="none" stroke="black" points="626,-493.5 626,-530.5 824,-530.5 824,-493.5 626,-493.5"/>
<text text-anchor="start" x="711" y="-508.3" font-family="Helvetica Neue" font-size="14.00" fill="#333333">User</text>
<polygon fill="#ffffff" stroke="transparent" points="626,-456.5 626,-493.5 824,-493.5 824,-456.5 626,-456.5"/>
<polygon fill="none" stroke="black" points="626,-456.5 626,-493.5 824,-493.5 824,-456.5 626,-456.5"/>
<text text-anchor="start" x="637" y="-471.3" font-family="Helvetica Neue" font-size="14.00" fill="#333333">id (bigint)</text>
<polygon fill="#ffffff" stroke="transparent" points="626,-419.5 626,-456.5 824,-456.5 824,-419.5 626,-419.5"/>
<polygon fill="none" stroke="black" points="626,-419.5 626,-456.5 824,-456.5 824,-419.5 626,-419.5"/>
<text text-anchor="start" x="637" y="-434.3" font-family="Helvetica Neue" font-size="14.00" fill="#333333">name (string)</text>
<polygon fill="#ffffff" stroke="transparent" points="626,-382.5 626,-419.5 824,-419.5 824,-382.5 626,-382.5"/>
<polygon fill="none" stroke="black" points="626,-382.5 626,-419.5 824,-419.5 824,-382.5 626,-382.5"/>
<text text-anchor="start" x="637" y="-397.3" font-family="Helvetica Neue" font-size="14.00" fill="#333333">email (string)</text>
<polygon fill="#ffffff" stroke="transparent" points="626,-345.5 626,-382.5 824,-382.5 824,-345.5 626,-345.5"/>
<polygon fill="none" stroke="black" points="626,-345.5 626,-382.5 824,-382.5 824,-345.5 626,-345.5"/>
<text text-anchor="start" x="637" y="-360.3" font-family="Helvetica Neue" font-size="14.00" fill="#333333">lockout_time (integer)</text>
<polygon fill="#ffffff" stroke="transparent" points="626,-308.5 626,-345.5 824,-345.5 824,-308.5 626,-308.5"/>
<polygon fill="none" stroke="black" points="626,-308.5 626,-345.5 824,-345.5 824,-308.5 626,-308.5"/>
<text text-anchor="start" x="637" y="-323.3" font-family="Helvetica Neue" font-size="14.00" fill="#333333">email_verified_at (datetime)</text>
<polygon fill="#ffffff" stroke="transparent" points="626,-271.5 626,-308.5 824,-308.5 824,-271.5 626,-271.5"/>
<polygon fill="none" stroke="black" points="626,-271.5 626,-308.5 824,-308.5 824,-271.5 626,-271.5"/>
<text text-anchor="start" x="637" y="-286.3" font-family="Helvetica Neue" font-size="14.00" fill="#333333">password (string)</text>
<polygon fill="#ffffff" stroke="transparent" points="626,-234.5 626,-271.5 824,-271.5 824,-234.5 626,-234.5"/>
<polygon fill="none" stroke="black" points="626,-234.5 626,-271.5 824,-271.5 824,-234.5 626,-234.5"/>
<text text-anchor="start" x="637" y="-249.3" font-family="Helvetica Neue" font-size="14.00" fill="#333333">role (string)</text>
<polygon fill="#ffffff" stroke="transparent" points="626,-197.5 626,-234.5 824,-234.5 824,-197.5 626,-197.5"/>
<polygon fill="none" stroke="black" points="626,-197.5 626,-234.5 824,-234.5 824,-197.5 626,-197.5"/>
<text text-anchor="start" x="637" y="-212.3" font-family="Helvetica Neue" font-size="14.00" fill="#333333">status (string)</text>
<polygon fill="#ffffff" stroke="transparent" points="626,-160.5 626,-197.5 824,-197.5 824,-160.5 626,-160.5"/>
<polygon fill="none" stroke="black" points="626,-160.5 626,-197.5 824,-197.5 824,-160.5 626,-160.5"/>
<text text-anchor="start" x="637" y="-175.3" font-family="Helvetica Neue" font-size="14.00" fill="#333333">remember_token (string)</text>
<polygon fill="#ffffff" stroke="transparent" points="626,-123.5 626,-160.5 824,-160.5 824,-123.5 626,-123.5"/>
<polygon fill="none" stroke="black" points="626,-123.5 626,-160.5 824,-160.5 824,-123.5 626,-123.5"/>
<text text-anchor="start" x="637" y="-138.3" font-family="Helvetica Neue" font-size="14.00" fill="#333333">created_at (datetime)</text>
<polygon fill="#ffffff" stroke="transparent" points="626,-86.5 626,-123.5 824,-123.5 824,-86.5 626,-86.5"/>
<polygon fill="none" stroke="black" points="626,-86.5 626,-123.5 824,-123.5 824,-86.5 626,-86.5"/>
<text text-anchor="start" x="637" y="-101.3" font-family="Helvetica Neue" font-size="14.00" fill="#333333">updated_at (datetime)</text>
</g>
<!-- appmodelsdraft&#45;&gt;appmodelsuser -->
<g id="edge2" class="edge">
<title>appmodelsdraft:user_id&#45;&gt;appmodelsuser:id</title>
<path fill="none" stroke="#f77f00" stroke-width="1.8" d="M482.29,-137.5C499.69,-167.1 554,-259.5 554,-259.5 554,-259.5 613.64,-438.43 624.36,-470.58"/>
<polygon fill="#f77f00" stroke="#f77f00" stroke-width="1.8" points="482.07,-137.12 480.88,-126.22 479.53,-132.81 477,-128.5 477,-128.5 477,-128.5 479.53,-132.81 473.12,-130.78 482.07,-137.12 482.07,-137.12"/>
<polygon fill="#f77f00" stroke="#f77f00" stroke-width="1.8" points="630.43,-472.97 620.94,-476.13 620.31,-474.24 629.79,-471.07 630.43,-472.97"/>
<polyline fill="none" stroke="#f77f00" stroke-width="1.8" points="626,-475.5 624.42,-470.76 "/>
<text text-anchor="middle" x="551.5" y="-263.3" font-family="Helvetica Neue" font-size="14.00"> </text>
<text text-anchor="middle" x="529.81" y="-316.72" font-family="Helvetica Neue" font-size="14.00">BelongsTo</text>
<text text-anchor="middle" x="529.81" y="-301.72" font-family="Helvetica Neue" font-size="14.00">userByDraft</text>
</g>
<!-- appmodelsattachment -->
<g id="node8" class="node">
<title>appmodelsattachment</title>
<polygon fill="none" stroke="black" points="1137,-972.5 973,-972.5 973,-750.5 1137,-750.5 1137,-972.5"/>
<polygon fill="#d3d3d3" stroke="transparent" points="973,-935.5 973,-972.5 1137,-972.5 1137,-935.5 973,-935.5"/>
<polygon fill="none" stroke="black" points="973,-935.5 973,-972.5 1137,-972.5 1137,-935.5 973,-935.5"/>
<text text-anchor="start" x="1018.5" y="-950.3" font-family="Helvetica Neue" font-size="14.00" fill="#333333">Attachment</text>
<polygon fill="#ffffff" stroke="transparent" points="973,-898.5 973,-935.5 1137,-935.5 1137,-898.5 973,-898.5"/>
<polygon fill="none" stroke="black" points="973,-898.5 973,-935.5 1137,-935.5 1137,-898.5 973,-898.5"/>
<text text-anchor="start" x="984" y="-913.3" font-family="Helvetica Neue" font-size="14.00" fill="#333333">id (bigint)</text>
<polygon fill="#ffffff" stroke="transparent" points="973,-861.5 973,-898.5 1137,-898.5 1137,-861.5 973,-861.5"/>
<polygon fill="none" stroke="black" points="973,-861.5 973,-898.5 1137,-898.5 1137,-861.5 973,-861.5"/>
<text text-anchor="start" x="984" y="-876.3" font-family="Helvetica Neue" font-size="14.00" fill="#333333">mail_id (bigint)</text>
<polygon fill="#ffffff" stroke="transparent" points="973,-824.5 973,-861.5 1137,-861.5 1137,-824.5 973,-824.5"/>
<polygon fill="none" stroke="black" points="973,-824.5 973,-861.5 1137,-861.5 1137,-824.5 973,-824.5"/>
<text text-anchor="start" x="984" y="-839.3" font-family="Helvetica Neue" font-size="14.00" fill="#333333">attachment (string)</text>
<polygon fill="#ffffff" stroke="transparent" points="973,-787.5 973,-824.5 1137,-824.5 1137,-787.5 973,-787.5"/>
<polygon fill="none" stroke="black" points="973,-787.5 973,-824.5 1137,-824.5 1137,-787.5 973,-787.5"/>
<text text-anchor="start" x="984" y="-802.3" font-family="Helvetica Neue" font-size="14.00" fill="#333333">created_at (datetime)</text>
<polygon fill="#ffffff" stroke="transparent" points="973,-750.5 973,-787.5 1137,-787.5 1137,-750.5 973,-750.5"/>
<polygon fill="none" stroke="black" points="973,-750.5 973,-787.5 1137,-787.5 1137,-750.5 973,-750.5"/>
<text text-anchor="start" x="984" y="-765.3" font-family="Helvetica Neue" font-size="14.00" fill="#333333">updated_at (datetime)</text>
</g>
<!-- appmodelsmail&#45;&gt;appmodelsattachment -->
<g id="edge9" class="edge">
<title>appmodelsmail:id&#45;&gt;appmodelsattachment:mail_id</title>
<path fill="none" stroke="#fcbf49" stroke-width="1.8" d="M808,-880.5C808,-880.5 926.56,-880.5 962.68,-880.5"/>
<polygon fill="#fcbf49" stroke="#fcbf49" stroke-width="1.8" points="963,-880.5 973,-885 968,-880.5 973,-880.5 973,-880.5 973,-880.5 968,-880.5 973,-876 963,-880.5 963,-880.5"/>
<text text-anchor="middle" x="898.5" y="-884.3" font-family="Helvetica Neue" font-size="14.00"> </text>
<text text-anchor="middle" x="846.34" y="-869.3" font-family="Helvetica Neue" font-size="14.00">HasMany</text>
<text text-anchor="middle" x="846.34" y="-854.3" font-family="Helvetica Neue" font-size="14.00">attachments</text>
</g>
<!-- appmodelsuserinfo -->
<g id="node9" class="node">
<title>appmodelsuserinfo</title>
<polygon fill="none" stroke="black" points="1137,-567.5 973,-567.5 973,-271.5 1137,-271.5 1137,-567.5"/>
<polygon fill="#d3d3d3" stroke="transparent" points="973,-530.5 973,-567.5 1137,-567.5 1137,-530.5 973,-530.5"/>
<polygon fill="none" stroke="black" points="973,-530.5 973,-567.5 1137,-567.5 1137,-530.5 973,-530.5"/>
<text text-anchor="start" x="1028" y="-545.3" font-family="Helvetica Neue" font-size="14.00" fill="#333333">UserInfo</text>
<polygon fill="#ffffff" stroke="transparent" points="973,-493.5 973,-530.5 1137,-530.5 1137,-493.5 973,-493.5"/>
<polygon fill="none" stroke="black" points="973,-493.5 973,-530.5 1137,-530.5 1137,-493.5 973,-493.5"/>
<text text-anchor="start" x="984" y="-508.3" font-family="Helvetica Neue" font-size="14.00" fill="#333333">id (bigint)</text>
<polygon fill="#ffffff" stroke="transparent" points="973,-456.5 973,-493.5 1137,-493.5 1137,-456.5 973,-456.5"/>
<polygon fill="none" stroke="black" points="973,-456.5 973,-493.5 1137,-493.5 1137,-456.5 973,-456.5"/>
<text text-anchor="start" x="984" y="-471.3" font-family="Helvetica Neue" font-size="14.00" fill="#333333">user_id (bigint)</text>
<polygon fill="#ffffff" stroke="transparent" points="973,-419.5 973,-456.5 1137,-456.5 1137,-419.5 973,-419.5"/>
<polygon fill="none" stroke="black" points="973,-419.5 973,-456.5 1137,-456.5 1137,-419.5 973,-419.5"/>
<text text-anchor="start" x="984" y="-434.3" font-family="Helvetica Neue" font-size="14.00" fill="#333333">dob (string)</text>
<polygon fill="#ffffff" stroke="transparent" points="973,-382.5 973,-419.5 1137,-419.5 1137,-382.5 973,-382.5"/>
<polygon fill="none" stroke="black" points="973,-382.5 973,-419.5 1137,-419.5 1137,-382.5 973,-382.5"/>
<text text-anchor="start" x="984" y="-397.3" font-family="Helvetica Neue" font-size="14.00" fill="#333333">gender (string)</text>
<polygon fill="#ffffff" stroke="transparent" points="973,-345.5 973,-382.5 1137,-382.5 1137,-345.5 973,-345.5"/>
<polygon fill="none" stroke="black" points="973,-345.5 973,-382.5 1137,-382.5 1137,-345.5 973,-345.5"/>
<text text-anchor="start" x="984" y="-360.3" font-family="Helvetica Neue" font-size="14.00" fill="#333333">photo (string)</text>
<polygon fill="#ffffff" stroke="transparent" points="973,-308.5 973,-345.5 1137,-345.5 1137,-308.5 973,-308.5"/>
<polygon fill="none" stroke="black" points="973,-308.5 973,-345.5 1137,-345.5 1137,-308.5 973,-308.5"/>
<text text-anchor="start" x="984" y="-323.3" font-family="Helvetica Neue" font-size="14.00" fill="#333333">created_at (datetime)</text>
<polygon fill="#ffffff" stroke="transparent" points="973,-271.5 973,-308.5 1137,-308.5 1137,-271.5 973,-271.5"/>
<polygon fill="none" stroke="black" points="973,-271.5 973,-308.5 1137,-308.5 1137,-271.5 973,-271.5"/>
<text text-anchor="start" x="984" y="-286.3" font-family="Helvetica Neue" font-size="14.00" fill="#333333">updated_at (datetime)</text>
</g>
<!-- appmodelsuser&#45;&gt;appmodelsuserinfo -->
<g id="edge14" class="edge">
<title>appmodelsuser:id&#45;&gt;appmodelsuserinfo:user_id</title>
<path fill="none" stroke="#d62828" stroke-width="1.8" d="M824,-475.5C824,-475.5 941.15,-475.5 967.7,-475.5"/>
<polygon fill="#d62828" stroke="#d62828" stroke-width="1.8" points="972,-470.5 972,-480.5 970,-480.5 970,-470.5 972,-470.5"/>
<polyline fill="none" stroke="#d62828" stroke-width="1.8" points="973,-475.5 968,-475.5 "/>
<text text-anchor="middle" x="898.5" y="-479.3" font-family="Helvetica Neue" font-size="14.00"> </text>
<text text-anchor="middle" x="869.35" y="-464.3" font-family="Helvetica Neue" font-size="14.00">HasOne</text>
<text text-anchor="middle" x="869.35" y="-449.3" font-family="Helvetica Neue" font-size="14.00">userInfo</text>
</g>
<!-- appmodelsimportant -->
<g id="node4" class="node">
<title>appmodelsimportant</title>
<polygon fill="none" stroke="black" points="164,-886 0,-886 0,-553 164,-553 164,-886"/>
<polygon fill="#d3d3d3" stroke="transparent" points="0,-848.5 0,-885.5 164,-885.5 164,-848.5 0,-848.5"/>
<polygon fill="none" stroke="black" points="0,-848.5 0,-885.5 164,-885.5 164,-848.5 0,-848.5"/>
<text text-anchor="start" x="50" y="-863.3" font-family="Helvetica Neue" font-size="14.00" fill="#333333">Important</text>
<polygon fill="#ffffff" stroke="transparent" points="0,-811.5 0,-848.5 164,-848.5 164,-811.5 0,-811.5"/>
<polygon fill="none" stroke="black" points="0,-811.5 0,-848.5 164,-848.5 164,-811.5 0,-811.5"/>
<text text-anchor="start" x="11" y="-826.3" font-family="Helvetica Neue" font-size="14.00" fill="#333333">id (bigint)</text>
<polygon fill="#ffffff" stroke="transparent" points="0,-774.5 0,-811.5 164,-811.5 164,-774.5 0,-774.5"/>
<polygon fill="none" stroke="black" points="0,-774.5 0,-811.5 164,-811.5 164,-774.5 0,-774.5"/>
<text text-anchor="start" x="11" y="-789.3" font-family="Helvetica Neue" font-size="14.00" fill="#333333">inbox_id (bigint)</text>
<polygon fill="#ffffff" stroke="transparent" points="0,-737.5 0,-774.5 164,-774.5 164,-737.5 0,-737.5"/>
<polygon fill="none" stroke="black" points="0,-737.5 0,-774.5 164,-774.5 164,-737.5 0,-737.5"/>
<text text-anchor="start" x="11" y="-752.3" font-family="Helvetica Neue" font-size="14.00" fill="#333333">outbox_id (bigint)</text>
<polygon fill="#ffffff" stroke="transparent" points="0,-700.5 0,-737.5 164,-737.5 164,-700.5 0,-700.5"/>
<polygon fill="none" stroke="black" points="0,-700.5 0,-737.5 164,-737.5 164,-700.5 0,-700.5"/>
<text text-anchor="start" x="11" y="-715.3" font-family="Helvetica Neue" font-size="14.00" fill="#333333">trash_id (bigint)</text>
<polygon fill="#ffffff" stroke="transparent" points="0,-663.5 0,-700.5 164,-700.5 164,-663.5 0,-663.5"/>
<polygon fill="none" stroke="black" points="0,-663.5 0,-700.5 164,-700.5 164,-663.5 0,-663.5"/>
<text text-anchor="start" x="11" y="-678.3" font-family="Helvetica Neue" font-size="14.00" fill="#333333">draft_id (bigint)</text>
<polygon fill="#ffffff" stroke="transparent" points="0,-626.5 0,-663.5 164,-663.5 164,-626.5 0,-626.5"/>
<polygon fill="none" stroke="black" points="0,-626.5 0,-663.5 164,-663.5 164,-626.5 0,-626.5"/>
<text text-anchor="start" x="11" y="-641.3" font-family="Helvetica Neue" font-size="14.00" fill="#333333">user_name (string)</text>
<polygon fill="#ffffff" stroke="transparent" points="0,-589.5 0,-626.5 164,-626.5 164,-589.5 0,-589.5"/>
<polygon fill="none" stroke="black" points="0,-589.5 0,-626.5 164,-626.5 164,-589.5 0,-589.5"/>
<text text-anchor="start" x="11" y="-604.3" font-family="Helvetica Neue" font-size="14.00" fill="#333333">created_at (datetime)</text>
<polygon fill="#ffffff" stroke="transparent" points="0,-552.5 0,-589.5 164,-589.5 164,-552.5 0,-552.5"/>
<polygon fill="none" stroke="black" points="0,-552.5 0,-589.5 164,-589.5 164,-552.5 0,-552.5"/>
<text text-anchor="start" x="11" y="-567.3" font-family="Helvetica Neue" font-size="14.00" fill="#333333">updated_at (datetime)</text>
</g>
<!-- appmodelsimportant&#45;&gt;appmodelsdraft -->
<g id="edge4" class="edge">
<title>appmodelsimportant:draft_id&#45;&gt;appmodelsdraft:id</title>
<path fill="none" stroke="#f77f00" stroke-width="1.8" d="M166.98,-671.95C186.62,-608.92 297.32,-253.82 311.5,-208.3"/>
<polygon fill="#f77f00" stroke="#f77f00" stroke-width="1.8" points="166.98,-671.95 159.7,-680.16 165.49,-676.73 164,-681.5 164,-681.5 164,-681.5 165.49,-676.73 168.3,-682.84 166.98,-671.95 166.98,-671.95"/>
<polygon fill="#f77f00" stroke="#f77f00" stroke-width="1.8" points="307.93,-202.97 317.48,-205.94 316.88,-207.85 307.33,-204.88 307.93,-202.97"/>
<polyline fill="none" stroke="#f77f00" stroke-width="1.8" points="313,-203.5 311.51,-208.27 "/>
<text text-anchor="middle" x="238.5" y="-446.3" font-family="Helvetica Neue" font-size="14.00"> </text>
<text text-anchor="middle" x="206.74" y="-428.93" font-family="Helvetica Neue" font-size="14.00">BelongsTo</text>
<text text-anchor="middle" x="206.74" y="-413.93" font-family="Helvetica Neue" font-size="14.00">draft</text>
</g>
<!-- appmodelstrash -->
<g id="node5" class="node">
<title>appmodelstrash</title>
<polygon fill="none" stroke="black" points="477,-627.5 313,-627.5 313,-331.5 477,-331.5 477,-627.5"/>
<polygon fill="#d3d3d3" stroke="transparent" points="313,-590.5 313,-627.5 477,-627.5 477,-590.5 313,-590.5"/>
<polygon fill="none" stroke="black" points="313,-590.5 313,-627.5 477,-627.5 477,-590.5 313,-590.5"/>
<text text-anchor="start" x="377" y="-605.3" font-family="Helvetica Neue" font-size="14.00" fill="#333333">Trash</text>
<polygon fill="#ffffff" stroke="transparent" points="313,-553.5 313,-590.5 477,-590.5 477,-553.5 313,-553.5"/>
<polygon fill="none" stroke="black" points="313,-553.5 313,-590.5 477,-590.5 477,-553.5 313,-553.5"/>
<text text-anchor="start" x="324" y="-568.3" font-family="Helvetica Neue" font-size="14.00" fill="#333333">id (bigint)</text>
<polygon fill="#ffffff" stroke="transparent" points="313,-516.5 313,-553.5 477,-553.5 477,-516.5 313,-516.5"/>
<polygon fill="none" stroke="black" points="313,-516.5 313,-553.5 477,-553.5 477,-516.5 313,-516.5"/>
<text text-anchor="start" x="324" y="-531.3" font-family="Helvetica Neue" font-size="14.00" fill="#333333">mail_id (bigint)</text>
<polygon fill="#ffffff" stroke="transparent" points="313,-479.5 313,-516.5 477,-516.5 477,-479.5 313,-479.5"/>
<polygon fill="none" stroke="black" points="313,-479.5 313,-516.5 477,-516.5 477,-479.5 313,-479.5"/>
<text text-anchor="start" x="324" y="-494.3" font-family="Helvetica Neue" font-size="14.00" fill="#333333">user_id (bigint)</text>
<polygon fill="#ffffff" stroke="transparent" points="313,-442.5 313,-479.5 477,-479.5 477,-442.5 313,-442.5"/>
<polygon fill="none" stroke="black" points="313,-442.5 313,-479.5 477,-479.5 477,-442.5 313,-442.5"/>
<text text-anchor="start" x="324" y="-457.3" font-family="Helvetica Neue" font-size="14.00" fill="#333333">isInbox (string)</text>
<polygon fill="#ffffff" stroke="transparent" points="313,-405.5 313,-442.5 477,-442.5 477,-405.5 313,-405.5"/>
<polygon fill="none" stroke="black" points="313,-405.5 313,-442.5 477,-442.5 477,-405.5 313,-405.5"/>
<text text-anchor="start" x="324" y="-420.3" font-family="Helvetica Neue" font-size="14.00" fill="#333333">isImp (string)</text>
<polygon fill="#ffffff" stroke="transparent" points="313,-368.5 313,-405.5 477,-405.5 477,-368.5 313,-368.5"/>
<polygon fill="none" stroke="black" points="313,-368.5 313,-405.5 477,-405.5 477,-368.5 313,-368.5"/>
<text text-anchor="start" x="324" y="-383.3" font-family="Helvetica Neue" font-size="14.00" fill="#333333">created_at (datetime)</text>
<polygon fill="#ffffff" stroke="transparent" points="313,-331.5 313,-368.5 477,-368.5 477,-331.5 313,-331.5"/>
<polygon fill="none" stroke="black" points="313,-331.5 313,-368.5 477,-368.5 477,-331.5 313,-331.5"/>
<text text-anchor="start" x="324" y="-346.3" font-family="Helvetica Neue" font-size="14.00" fill="#333333">updated_at (datetime)</text>
</g>
<!-- appmodelsimportant&#45;&gt;appmodelstrash -->
<g id="edge3" class="edge">
<title>appmodelsimportant:trash_id&#45;&gt;appmodelstrash:id</title>
<path fill="none" stroke="#f77f00" stroke-width="1.8" d="M171.19,-711.46C197.69,-685.48 289.47,-595.55 309.23,-576.19"/>
<polygon fill="#f77f00" stroke="#f77f00" stroke-width="1.8" points="171.14,-711.5 160.85,-715.29 167.57,-715 164,-718.5 164,-718.5 164,-718.5 167.57,-715 167.15,-721.71 171.14,-711.5 171.14,-711.5"/>
<polygon fill="#f77f00" stroke="#f77f00" stroke-width="1.8" points="308.79,-569.63 315.79,-576.77 314.36,-578.17 307.36,-571.03 308.79,-569.63"/>
<polyline fill="none" stroke="#f77f00" stroke-width="1.8" points="313,-572.5 309.43,-576 "/>
<text text-anchor="middle" x="238.5" y="-649.3" font-family="Helvetica Neue" font-size="14.00"> </text>
<text text-anchor="middle" x="207.71" y="-632.62" font-family="Helvetica Neue" font-size="14.00">BelongsTo</text>
<text text-anchor="middle" x="207.71" y="-617.62" font-family="Helvetica Neue" font-size="14.00">trash</text>
</g>
<!-- appmodelsinbox -->
<g id="node6" class="node">
<title>appmodelsinbox</title>
<polygon fill="none" stroke="black" points="477,-1290 313,-1290 313,-1031 477,-1031 477,-1290"/>
<polygon fill="#d3d3d3" stroke="transparent" points="313,-1252.5 313,-1289.5 477,-1289.5 477,-1252.5 313,-1252.5"/>
<polygon fill="none" stroke="black" points="313,-1252.5 313,-1289.5 477,-1289.5 477,-1252.5 313,-1252.5"/>
<text text-anchor="start" x="376.5" y="-1267.3" font-family="Helvetica Neue" font-size="14.00" fill="#333333">Inbox</text>
<polygon fill="#ffffff" stroke="transparent" points="313,-1215.5 313,-1252.5 477,-1252.5 477,-1215.5 313,-1215.5"/>
<polygon fill="none" stroke="black" points="313,-1215.5 313,-1252.5 477,-1252.5 477,-1215.5 313,-1215.5"/>
<text text-anchor="start" x="324" y="-1230.3" font-family="Helvetica Neue" font-size="14.00" fill="#333333">id (bigint)</text>
<polygon fill="#ffffff" stroke="transparent" points="313,-1178.5 313,-1215.5 477,-1215.5 477,-1178.5 313,-1178.5"/>
<polygon fill="none" stroke="black" points="313,-1178.5 313,-1215.5 477,-1215.5 477,-1178.5 313,-1178.5"/>
<text text-anchor="start" x="324" y="-1193.3" font-family="Helvetica Neue" font-size="14.00" fill="#333333">mail_id (bigint)</text>
<polygon fill="#ffffff" stroke="transparent" points="313,-1141.5 313,-1178.5 477,-1178.5 477,-1141.5 313,-1141.5"/>
<polygon fill="none" stroke="black" points="313,-1141.5 313,-1178.5 477,-1178.5 477,-1141.5 313,-1141.5"/>
<text text-anchor="start" x="324" y="-1156.3" font-family="Helvetica Neue" font-size="14.00" fill="#333333">user_id (bigint)</text>
<polygon fill="#ffffff" stroke="transparent" points="313,-1104.5 313,-1141.5 477,-1141.5 477,-1104.5 313,-1104.5"/>
<polygon fill="none" stroke="black" points="313,-1104.5 313,-1141.5 477,-1141.5 477,-1104.5 313,-1104.5"/>
<text text-anchor="start" x="324" y="-1119.3" font-family="Helvetica Neue" font-size="14.00" fill="#333333">isImp (string)</text>
<polygon fill="#ffffff" stroke="transparent" points="313,-1067.5 313,-1104.5 477,-1104.5 477,-1067.5 313,-1067.5"/>
<polygon fill="none" stroke="black" points="313,-1067.5 313,-1104.5 477,-1104.5 477,-1067.5 313,-1067.5"/>
<text text-anchor="start" x="324" y="-1082.3" font-family="Helvetica Neue" font-size="14.00" fill="#333333">created_at (datetime)</text>
<polygon fill="#ffffff" stroke="transparent" points="313,-1030.5 313,-1067.5 477,-1067.5 477,-1030.5 313,-1030.5"/>
<polygon fill="none" stroke="black" points="313,-1030.5 313,-1067.5 477,-1067.5 477,-1030.5 313,-1030.5"/>
<text text-anchor="start" x="324" y="-1045.3" font-family="Helvetica Neue" font-size="14.00" fill="#333333">updated_at (datetime)</text>
</g>
<!-- appmodelsimportant&#45;&gt;appmodelsinbox -->
<g id="edge5" class="edge">
<title>appmodelsimportant:inbox_id&#45;&gt;appmodelsinbox:id</title>
<path fill="none" stroke="#f77f00" stroke-width="1.8" d="M167.25,-803.12C187.55,-863.2 296.53,-1185.75 311.33,-1229.57"/>
<polygon fill="#f77f00" stroke="#f77f00" stroke-width="1.8" points="167.2,-802.97 168.26,-792.06 165.6,-798.24 164,-793.5 164,-793.5 164,-793.5 165.6,-798.24 159.74,-794.94 167.2,-802.97 167.2,-802.97"/>
<polygon fill="#f77f00" stroke="#f77f00" stroke-width="1.8" points="317.42,-1231.95 307.94,-1235.15 307.3,-1233.26 316.78,-1230.06 317.42,-1231.95"/>
<polyline fill="none" stroke="#f77f00" stroke-width="1.8" points="313,-1234.5 311.4,-1229.76 "/>
<text text-anchor="middle" x="238.5" y="-1017.3" font-family="Helvetica Neue" font-size="14.00"> </text>
<text text-anchor="middle" x="271.79" y="-1005.15" font-family="Helvetica Neue" font-size="14.00">BelongsTo</text>
<text text-anchor="middle" x="271.79" y="-990.15" font-family="Helvetica Neue" font-size="14.00">inbox</text>
</g>
<!-- appmodelsoutbox -->
<g id="node7" class="node">
<title>appmodelsoutbox</title>
<polygon fill="none" stroke="black" points="477,-959 313,-959 313,-700 477,-700 477,-959"/>
<polygon fill="#d3d3d3" stroke="transparent" points="313,-921.5 313,-958.5 477,-958.5 477,-921.5 313,-921.5"/>
<polygon fill="none" stroke="black" points="313,-921.5 313,-958.5 477,-958.5 477,-921.5 313,-921.5"/>
<text text-anchor="start" x="372" y="-936.3" font-family="Helvetica Neue" font-size="14.00" fill="#333333">Outbox</text>
<polygon fill="#ffffff" stroke="transparent" points="313,-884.5 313,-921.5 477,-921.5 477,-884.5 313,-884.5"/>
<polygon fill="none" stroke="black" points="313,-884.5 313,-921.5 477,-921.5 477,-884.5 313,-884.5"/>
<text text-anchor="start" x="324" y="-899.3" font-family="Helvetica Neue" font-size="14.00" fill="#333333">id (bigint)</text>
<polygon fill="#ffffff" stroke="transparent" points="313,-847.5 313,-884.5 477,-884.5 477,-847.5 313,-847.5"/>
<polygon fill="none" stroke="black" points="313,-847.5 313,-884.5 477,-884.5 477,-847.5 313,-847.5"/>
<text text-anchor="start" x="324" y="-862.3" font-family="Helvetica Neue" font-size="14.00" fill="#333333">mail_id (bigint)</text>
<polygon fill="#ffffff" stroke="transparent" points="313,-810.5 313,-847.5 477,-847.5 477,-810.5 313,-810.5"/>
<polygon fill="none" stroke="black" points="313,-810.5 313,-847.5 477,-847.5 477,-810.5 313,-810.5"/>
<text text-anchor="start" x="324" y="-825.3" font-family="Helvetica Neue" font-size="14.00" fill="#333333">user_id (bigint)</text>
<polygon fill="#ffffff" stroke="transparent" points="313,-773.5 313,-810.5 477,-810.5 477,-773.5 313,-773.5"/>
<polygon fill="none" stroke="black" points="313,-773.5 313,-810.5 477,-810.5 477,-773.5 313,-773.5"/>
<text text-anchor="start" x="324" y="-788.3" font-family="Helvetica Neue" font-size="14.00" fill="#333333">isImp (string)</text>
<polygon fill="#ffffff" stroke="transparent" points="313,-736.5 313,-773.5 477,-773.5 477,-736.5 313,-736.5"/>
<polygon fill="none" stroke="black" points="313,-736.5 313,-773.5 477,-773.5 477,-736.5 313,-736.5"/>
<text text-anchor="start" x="324" y="-751.3" font-family="Helvetica Neue" font-size="14.00" fill="#333333">created_at (datetime)</text>
<polygon fill="#ffffff" stroke="transparent" points="313,-699.5 313,-736.5 477,-736.5 477,-699.5 313,-699.5"/>
<polygon fill="none" stroke="black" points="313,-699.5 313,-736.5 477,-736.5 477,-699.5 313,-699.5"/>
<text text-anchor="start" x="324" y="-714.3" font-family="Helvetica Neue" font-size="14.00" fill="#333333">updated_at (datetime)</text>
</g>
<!-- appmodelsimportant&#45;&gt;appmodelsoutbox -->
<g id="edge6" class="edge">
<title>appmodelsimportant:outbox_id&#45;&gt;appmodelsoutbox:id</title>
<path fill="none" stroke="#f77f00" stroke-width="1.8" d="M171.19,-763.59C197.69,-789.74 289.47,-880.29 309.23,-899.78"/>
<polygon fill="#f77f00" stroke="#f77f00" stroke-width="1.8" points="171.12,-763.52 167.16,-753.3 167.56,-760.01 164,-756.5 164,-756.5 164,-756.5 167.56,-760.01 160.84,-759.7 171.12,-763.52 171.12,-763.52"/>
<polygon fill="#f77f00" stroke="#f77f00" stroke-width="1.8" points="315.8,-899.24 308.78,-906.36 307.35,-904.95 314.38,-897.83 315.8,-899.24"/>
<polyline fill="none" stroke="#f77f00" stroke-width="1.8" points="313,-903.5 309.44,-899.99 "/>
<text text-anchor="middle" x="238.5" y="-833.3" font-family="Helvetica Neue" font-size="14.00"> </text>
<text text-anchor="middle" x="272.71" y="-820.49" font-family="Helvetica Neue" font-size="14.00">BelongsTo</text>
<text text-anchor="middle" x="272.71" y="-805.49" font-family="Helvetica Neue" font-size="14.00">outbox</text>
</g>
<!-- appmodelstrash&#45;&gt;appmodelsmail -->
<g id="edge12" class="edge">
<title>appmodelstrash:mail_id&#45;&gt;appmodelsmail:id</title>
<path fill="none" stroke="#f77f00" stroke-width="1.8" d="M482.54,-543.84C500.19,-570.44 554,-651.5 554,-651.5 554,-651.5 627.52,-842.83 640.16,-875.72"/>
<polygon fill="#f77f00" stroke="#f77f00" stroke-width="1.8" points="482.53,-543.83 480.75,-533.01 479.77,-539.67 477,-535.5 477,-535.5 477,-535.5 479.77,-539.67 473.25,-537.99 482.53,-543.83 482.53,-543.83"/>
<polygon fill="#f77f00" stroke="#f77f00" stroke-width="1.8" points="646.31,-877.77 636.97,-881.36 636.26,-879.49 645.59,-875.91 646.31,-877.77"/>
<polyline fill="none" stroke="#f77f00" stroke-width="1.8" points="642,-880.5 640.21,-875.83 "/>
<text text-anchor="middle" x="551.5" y="-655.3" font-family="Helvetica Neue" font-size="14.00"> </text>
<text text-anchor="middle" x="606.41" y="-692.1" font-family="Helvetica Neue" font-size="14.00">BelongsTo</text>
<text text-anchor="middle" x="606.41" y="-677.1" font-family="Helvetica Neue" font-size="14.00">mail</text>
</g>
<!-- appmodelstrash&#45;&gt;appmodelsuser -->
<g id="edge13" class="edge">
<title>appmodelstrash:user_id&#45;&gt;appmodelsuser:id</title>
<path fill="none" stroke="#f77f00" stroke-width="1.8" d="M487.24,-496.92C516.43,-492.41 599.34,-479.61 620.85,-476.29"/>
<polygon fill="#f77f00" stroke="#f77f00" stroke-width="1.8" points="486.88,-496.97 476.31,-494.05 481.94,-497.74 477,-498.5 477,-498.5 477,-498.5 481.94,-497.74 477.69,-502.95 486.88,-496.97 486.88,-496.97"/>
<polygon fill="#f77f00" stroke="#f77f00" stroke-width="1.8" points="624.25,-470.71 625.77,-480.59 623.8,-480.9 622.27,-471.02 624.25,-470.71"/>
<polyline fill="none" stroke="#f77f00" stroke-width="1.8" points="626,-475.5 621.06,-476.26 "/>
<text text-anchor="middle" x="551.5" y="-491.3" font-family="Helvetica Neue" font-size="14.00"> </text>
<text text-anchor="middle" x="515.05" y="-475.41" font-family="Helvetica Neue" font-size="14.00">BelongsTo</text>
<text text-anchor="middle" x="515.05" y="-460.41" font-family="Helvetica Neue" font-size="14.00">userByTrash</text>
</g>
<!-- appmodelsinbox&#45;&gt;appmodelsmail -->
<g id="edge7" class="edge">
<title>appmodelsinbox:mail_id&#45;&gt;appmodelsmail:id</title>
<path fill="none" stroke="#f77f00" stroke-width="1.8" d="M482.29,-1188.7C499.69,-1159.78 554,-1069.5 554,-1069.5 554,-1069.5 626.27,-914.28 639.82,-885.17"/>
<polygon fill="#f77f00" stroke="#f77f00" stroke-width="1.8" points="482.15,-1188.93 473.14,-1195.18 479.58,-1193.22 477,-1197.5 477,-1197.5 477,-1197.5 479.58,-1193.22 480.86,-1199.82 482.15,-1188.93 482.15,-1188.93"/>
<polygon fill="#f77f00" stroke="#f77f00" stroke-width="1.8" points="637.05,-879.3 646.11,-883.52 645.27,-885.33 636.2,-881.11 637.05,-879.3"/>
<polyline fill="none" stroke="#f77f00" stroke-width="1.8" points="642,-880.5 639.89,-885.03 "/>
<text text-anchor="middle" x="551.5" y="-1079.3" font-family="Helvetica Neue" font-size="14.00"> </text>
<text text-anchor="middle" x="535.05" y="-1029.19" font-family="Helvetica Neue" font-size="14.00">BelongsTo</text>
<text text-anchor="middle" x="535.05" y="-1014.19" font-family="Helvetica Neue" font-size="14.00">mail</text>
</g>
<!-- appmodelsinbox&#45;&gt;appmodelsuser -->
<g id="edge8" class="edge">
<title>appmodelsinbox:user_id&#45;&gt;appmodelsuser:id</title>
<path fill="none" stroke="#f77f00" stroke-width="1.8" d="M479.92,-1149.85C493.99,-1103.46 554,-905.5 554,-905.5 554,-905.5 617.02,-529.14 625.14,-480.63"/>
<polygon fill="#f77f00" stroke="#f77f00" stroke-width="1.8" points="479.9,-1149.93 472.69,-1158.19 478.45,-1154.72 477,-1159.5 477,-1159.5 477,-1159.5 478.45,-1154.72 481.31,-1160.81 479.9,-1149.93 479.9,-1149.93"/>
<polygon fill="#f77f00" stroke="#f77f00" stroke-width="1.8" points="620.9,-475.66 630.77,-477.31 630.44,-479.28 620.57,-477.63 620.9,-475.66"/>
<polyline fill="none" stroke="#f77f00" stroke-width="1.8" points="626,-475.5 625.17,-480.43 "/>
<text text-anchor="middle" x="551.5" y="-922.3" font-family="Helvetica Neue" font-size="14.00"> </text>
<text text-anchor="middle" x="528.99" y="-807.78" font-family="Helvetica Neue" font-size="14.00">BelongsTo</text>
<text text-anchor="middle" x="528.99" y="-792.78" font-family="Helvetica Neue" font-size="14.00">userByInbox</text>
</g>
<!-- appmodelsoutbox&#45;&gt;appmodelsmail -->
<g id="edge10" class="edge">
<title>appmodelsoutbox:mail_id&#45;&gt;appmodelsmail:id</title>
<path fill="none" stroke="#f77f00" stroke-width="1.8" d="M487.32,-867.38C518.93,-870.06 613.65,-878.09 636.84,-880.06"/>
<polygon fill="#f77f00" stroke="#f77f00" stroke-width="1.8" points="486.96,-867.35 477.38,-862.02 481.98,-866.92 477,-866.5 477,-866.5 477,-866.5 481.98,-866.92 476.62,-870.98 486.96,-867.35 486.96,-867.35"/>
<polygon fill="#f77f00" stroke="#f77f00" stroke-width="1.8" points="641.43,-875.43 640.58,-885.4 638.59,-885.23 639.43,-875.26 641.43,-875.43"/>
<polyline fill="none" stroke="#f77f00" stroke-width="1.8" points="642,-880.5 637.02,-880.08 "/>
<text text-anchor="middle" x="551.5" y="-876.3" font-family="Helvetica Neue" font-size="14.00"> </text>
<text text-anchor="middle" x="594.58" y="-862.52" font-family="Helvetica Neue" font-size="14.00">BelongsTo</text>
<text text-anchor="middle" x="594.58" y="-847.52" font-family="Helvetica Neue" font-size="14.00">mail</text>
</g>
<!-- appmodelsoutbox&#45;&gt;appmodelsuser -->
<g id="edge11" class="edge">
<title>appmodelsoutbox:user_id&#45;&gt;appmodelsuser:id</title>
<path fill="none" stroke="#f77f00" stroke-width="1.8" d="M481.82,-819.24C498.67,-786.84 554,-680.5 554,-680.5 554,-680.5 613.13,-512.14 624.22,-480.57"/>
<polygon fill="#f77f00" stroke="#f77f00" stroke-width="1.8" points="481.62,-819.63 473.01,-826.42 479.31,-824.06 477,-828.5 477,-828.5 477,-828.5 479.31,-824.06 480.99,-830.58 481.62,-819.63 481.62,-819.63"/>
<polygon fill="#f77f00" stroke="#f77f00" stroke-width="1.8" points="620.95,-474.79 630.39,-478.1 629.72,-479.99 620.29,-476.67 620.95,-474.79"/>
<polyline fill="none" stroke="#f77f00" stroke-width="1.8" points="626,-475.5 624.34,-480.22 "/>
<text text-anchor="middle" x="551.5" y="-692.3" font-family="Helvetica Neue" font-size="14.00"> </text>
<text text-anchor="middle" x="519.2" y="-643.11" font-family="Helvetica Neue" font-size="14.00">BelongsTo</text>
<text text-anchor="middle" x="519.2" y="-628.11" font-family="Helvetica Neue" font-size="14.00">userByOutbox</text>
</g>
</g>
</svg>
